<?xml version="1.0" encoding="UTF-8"?>
<svg xmlns="http://www.w3.org/2000/svg" viewBox="0 0 400 400" width="400" height="400">
  <defs>
    <style>
      .logo-line {
        fill: none;
        stroke: #355070;
        stroke-width: 3;
        stroke-linecap: round;
        stroke-linejoin: round;
      }
    </style>
  </defs>
  
  <!-- Left eyebrow -->
  <path class="logo-line" d="M80 120 Q120 100 160 110"/>
  
  <!-- Left eye -->
  <ellipse cx="120" cy="140" rx="25" ry="15" fill="none" stroke="#355070" stroke-width="3"/>
  <circle cx="115" cy="140" r="8" fill="#355070"/>
  
  <!-- Right eye with eyelashes -->
  <ellipse cx="280" cy="130" rx="25" ry="15" fill="none" stroke="#355070" stroke-width="3"/>
  <circle cx="285" cy="130" r="8" fill="#355070"/>
  
  <!-- Eyelashes -->
  <path class="logo-line" d="M255 120 L250 115"/>
  <path class="logo-line" d="M265 115 L262 108"/>
  <path class="logo-line" d="M275 113 L275 105"/>
  <path class="logo-line" d="M285 115 L288 107"/>
  <path class="logo-line" d="M295 118 L300 112"/>
  <path class="logo-line" d="M305 125 L312 122"/>
  
  <!-- Nose bridge line -->
  <path class="logo-line" d="M200 150 L190 180"/>
  
  <!-- Face outline - left side -->
  <path class="logo-line" d="M60 180 Q50 150 70 120 Q90 100 120 110 Q150 90 180 100 Q200 110 200 150"/>
  
  <!-- Face outline - right side with geometric element -->
  <path class="logo-line" d="M200 150 Q220 120 250 115 Q280 110 310 125 Q340 140 350 170 Q355 200 340 230"/>
  
  <!-- Geometric rectangular element on right side -->
  <rect x="320" y="150" width="40" height="60" fill="none" stroke="#355070" stroke-width="3" rx="5"/>
  <circle cx="330" cy="170" r="3" fill="#355070"/>
  <path class="logo-line" d="M345 160 L345 185"/>
  
  <!-- Mouth -->
  <path class="logo-line" d="M160 250 Q200 270 240 255 Q220 280 180 275 Q160 270 160 250"/>
  
  <!-- Chin and jaw line -->
  <path class="logo-line" d="M340 230 Q330 280 300 310 Q270 330 230 335 Q190 340 150 330 Q110 315 85 285 Q70 260 75 230 Q80 200 90 180"/>
  
  <!-- Additional artistic elements -->
  <circle cx="140" cy="200" r="2" fill="#355070"/>
  <circle cx="260" cy="190" r="2" fill="#355070"/>
</svg>
